<svg className="present2" width="120" height="131" viewBox="0 0 120 131" fill="none" xmlns="http://www.w3.org/2000/svg">
<path d="M30.8981 69.6531L84.5653 48.8855C92.0949 45.9718 100.529 49.7332 103.429 57.2269C106.344 64.759 102.585 73.1944 95.0939 76.0933L41.4267 96.8609C33.8972 99.7746 25.4629 96.0132 22.5631 88.5195C19.6633 81.0259 23.407 72.552 30.8981 69.6531Z" fill="#F696BB" className="color" />
<path d="M41.4267 96.8609L95.0939 76.0933C102.623 73.1796 111.058 76.941 113.957 84.4347C116.872 91.9667 113.114 100.402 105.622 103.301L51.9553 124.069C44.4257 126.982 35.9915 123.221 33.0917 115.727C30.177 108.195 33.9356 99.7597 41.4267 96.8609Z" fill="#F696BB" className="color" />
<path d="M79.1205 114.484C78.6979 114.648 78.2183 114.436 78.0548 114.013L56.9827 59.5592C56.8191 59.1365 57.0311 58.6569 57.4536 58.4933C57.8762 58.3298 58.3558 58.5419 58.5194 58.9646L79.5914 113.419C79.755 113.841 79.5431 114.321 79.1205 114.484Z" fill="black"/>
<path d="M58.2394 60.752C58.2394 60.752 58.201 60.7669 58.1626 60.7818C57.802 60.8771 57.3905 60.727 57.2183 60.3961L39.0102 28.2954C38.6718 27.7635 38.4104 27.2019 38.1898 26.4036C36.7597 21.5666 39.5169 16.4789 44.2843 14.9876C44.8754 14.803 45.5347 14.6805 46.2621 14.6199C48.7046 14.4258 51.0752 15.1875 52.8858 16.7844C54.7347 18.3665 55.8723 20.6214 56.0285 23.0795L58.7078 59.908C58.8032 60.2687 58.5851 60.6182 58.2394 60.752ZM44.2644 16.7626C40.6533 18.16 38.6272 22.1695 39.7326 25.9391C39.9321 26.5689 40.1106 27.03 40.3894 27.4081L40.4043 27.4466L56.8043 56.3588L54.3902 23.1832C54.2291 21.1689 53.3468 19.3454 51.8237 18.0348C50.3007 16.7243 48.3799 16.0979 46.4046 16.2437C45.8073 16.2981 45.2781 16.4145 44.7638 16.5694C44.6251 16.6673 44.4565 16.6883 44.2644 16.7626Z" fill="black"/>
<path d="M58.0695 60.1992C57.9542 60.2438 57.8241 60.25 57.694 60.2561L28.8373 57.5934C28.3788 57.5499 27.8905 57.4295 27.2957 57.2621C23.4541 56.0093 21.3275 51.8836 22.5259 48.0177C22.6783 47.3844 22.967 46.875 23.2087 46.4722C24.2372 44.7928 25.811 43.6094 27.7294 43.088C29.6241 42.6199 31.6329 42.903 33.2972 43.8937L58.1934 58.6932C58.528 58.873 58.6916 59.2957 58.5652 59.6539C58.4858 59.9055 58.3 60.11 58.0695 60.1992ZM27.4642 44.9138C26.2733 45.3746 25.2695 46.2049 24.6449 47.3303C24.4504 47.6265 24.2471 48.0144 24.1505 48.4495L24.1269 48.5028C23.1752 51.5221 24.8147 54.7316 27.7951 55.6991C28.2833 55.8195 28.6799 55.9311 29.0083 55.9808L54.2502 58.3192L32.4397 45.3302C31.1249 44.5576 29.5746 44.3181 28.0937 44.7144C27.9016 44.7887 27.6562 44.8395 27.4642 44.9138Z" fill="black"/>
<path d="M58.2466 60.0863C58.0545 60.1607 57.8711 60.1433 57.6728 60.0875C57.2614 59.9374 57.0297 59.4527 57.1796 59.0412C57.2589 58.7896 59.373 53.0671 63.6409 47.66C69.3599 40.4099 76.2562 37.3436 83.5143 38.8649C83.9493 38.9617 84.243 39.3783 84.1612 39.8518C84.0645 40.2868 83.6482 40.5805 83.1748 40.4986C67.0549 37.1928 58.8129 59.3812 58.7187 59.5944C58.6394 59.846 58.4771 59.9972 58.2466 60.0863Z" fill="black"/>
</svg>
