<svg className="present1" width="181" height="176" viewBox="0 0 181 176" fill="none" xmlns="http://www.w3.org/2000/svg">
<path d="M57.2787 175.19L0.178711 126.789L75.5787 23.9895L146.379 84.0895L57.2787 175.19Z" fill="#F9494B" className="color" />
<path d="M131.579 100.79C131.079 100.79 130.679 100.59 130.279 100.29L62.2787 42.4896C61.4787 41.7896 61.3787 40.4896 62.0787 39.6896C62.7787 38.8896 64.0788 38.7896 64.8788 39.4896L132.879 97.2896C133.679 97.9896 133.779 99.2896 133.079 100.09C132.679 100.59 132.179 100.79 131.579 100.79Z" fill="black"/>
<path d="M28.6788 152.989C28.1788 152.989 27.7788 152.789 27.3788 152.489C26.5788 151.789 26.4788 150.49 27.1788 149.69L96.0788 68.5895C96.7788 67.7895 98.0788 67.6895 98.8788 68.3895C99.6788 69.0895 99.7788 70.3895 99.0788 71.1895L30.1788 152.289C29.7788 152.789 29.2788 152.989 28.6788 152.989Z" fill="black"/>
<path d="M98.0788 71.9895C97.2788 71.9895 96.5788 71.4895 96.2788 70.7895C95.8788 69.9895 96.1788 68.9895 96.7788 68.4895L145.679 27.2895C154.579 19.6895 168.079 20.8895 175.679 29.7895C176.879 31.1895 177.879 32.7895 178.879 34.7895C183.679 45.5895 178.779 58.0895 168.079 62.8895C166.079 63.7895 163.979 64.2895 161.879 64.5895L98.2788 71.9895C98.2788 71.9895 98.1788 71.9895 98.0788 71.9895ZM159.379 26.2895C155.479 26.2895 151.479 27.5895 148.279 30.3895L104.479 67.2895L161.479 60.6895C163.179 60.4895 164.879 60.0895 166.479 59.3895C175.179 55.4895 179.079 45.2895 175.279 36.5895C174.479 34.9895 173.679 33.5895 172.679 32.4895C169.179 28.2895 164.279 26.2895 159.379 26.2895Z" fill="black"/>
<path d="M97.5787 71.6896C97.3787 71.6896 97.2787 71.6895 97.0787 71.5895C96.2787 71.3895 95.6787 70.6895 95.5787 69.7895L91.2787 20.3896C90.3787 10.1896 97.9787 1.18954 108.179 0.28954C110.179 0.18954 111.779 0.189552 113.279 0.489552C118.179 1.38955 122.379 4.18954 125.179 8.28954C127.979 12.3895 128.979 17.3896 128.079 22.1896C127.579 24.5896 126.779 26.5895 125.579 28.5895L99.2787 70.5895C98.8787 71.3895 98.2787 71.6896 97.5787 71.6896ZM109.979 4.28954C109.479 4.28954 108.979 4.28958 108.479 4.38958C100.479 5.08958 94.5787 12.1895 95.2787 20.0895L99.0787 63.5895L122.179 26.6896C123.079 25.1896 123.779 23.4896 124.079 21.6896C124.779 17.8896 123.979 13.9895 121.779 10.7895C119.579 7.58954 116.279 5.38956 112.479 4.68956C111.779 4.38956 110.979 4.28954 109.979 4.28954Z" fill="black"/>
</svg>
